# xmcd CD database file
#
# Track frame offsets:
#	150
#	37301
#	70695
#	95289
#	127916
#	153801
#	194795
#	212157
#	264912
#	278932
#	310945
#	336630
#
# Disc length: 4683 seconds
#
# Revision: 0
# Processed by: cddbd v1.5.2PL0 Copyright (c) Steve Scherf et al.
# Submitted via: CDex 1.81
#
DISCID=b512490c
DTITLE=Gueorgui Kornazov - Sila
DYEAR=2012
DGENRE=Jazz
TTITLE0=Part 1
TTITLE1=Part 2
TTITLE2=Part 3
TTITLE3=Part 4
TTITLE4=Part 5
TTITLE5=Part 6
TTITLE6=Part 7
TTITLE7=Part 8
TTITLE8=Part 9
TTITLE9=Part 10
TTITLE10=Part 11
TTITLE11=Part 12
EXTD=YEAR: 2012
EXTT0=
EXTT1=
EXTT2=
EXTT3=
EXTT4=
EXTT5=
EXTT6=
EXTT7=
EXTT8=
EXTT9=
EXTT10=
EXTT11=
PLAYORDER=
